<?xml version="1.0" encoding="UTF-8" standalone="no"?>
<!-- Created with Inkscape (http://www.inkscape.org/) -->

<svg
   version="1.1"
   id="svg2"
   width="603.82666"
   height="679.90668"
   viewBox="0 0 603.82666 679.90668"
   sodipodi:docname="vogel_vektorisiert.eps"
   xmlns:inkscape="http://www.inkscape.org/namespaces/inkscape"
   xmlns:sodipodi="http://sodipodi.sourceforge.net/DTD/sodipodi-0.dtd"
   xmlns="http://www.w3.org/2000/svg"
   xmlns:svg="http://www.w3.org/2000/svg">
  <defs
     id="defs6" />
  <sodipodi:namedview
     id="namedview4"
     pagecolor="#ffffff"
     bordercolor="#000000"
     borderopacity="0.25"
     inkscape:showpageshadow="2"
     inkscape:pageopacity="0.0"
     inkscape:pagecheckerboard="0"
     inkscape:deskcolor="#d1d1d1" />
  <g
     id="g8"
     inkscape:groupmode="layer"
     inkscape:label="ink_ext_XXXXXX"
     transform="matrix(1.3333333,0,0,-1.3333333,0,679.90667)">
    <g
       id="g10"
       transform="scale(0.1)">
      <path
         d="M 2705.8,1208.33 C 1529.7,887.129 364.285,1636.13 178.887,2837.23 c -47.434,307.31 -21.992,611.99 63.984,911.14 4.977,17.32 12.817,33.82 19.332,50.69 -32.301,-529.83 127,-984.38 510.59,-1352.39 288.147,-276.47 636.307,-424.35 1034.487,-442.38 865.43,-39.21 1621.36,645.25 1683.98,1530.03 18.24,0.59 35.16,-0.06 53.32,0 175.49,0.63 351,0 526.46,0 37.08,0 66.17,0.06 66.17,0.06 0,0 4.17,-27.64 7.71,-51.63 C 4307.85,2379.52 3645.46,1464.96 2705.8,1208.33 Z M 2568.06,159.031 c -305.26,0 -603.16,0 -906.15,0 0,291.739 0,580.258 0,874.929 301.51,-69.03 600.24,-73.351 906.15,-21.05 0,-285.23 0,-565.519 0,-853.879 z M 792.262,4620.22 c 400.208,444.02 1103.808,425.94 1448.258,-30.74 116.01,-153.81 171.99,-328.97 174.43,-520.61 2.24,-174.86 0.48,-349.8 0.48,-536.11 308.95,0 604.36,0 907.53,0 2.41,-175.38 -41.52,-334.77 -105.53,-488.49 -244.08,-586.34 -863.76,-950.22 -1487.36,-876.17 -685.44,81.41 -1195.632,557.35 -1286.961,1220.4 -62.988,457.24 32.766,880.7 349.153,1231.72 z m 2501.258,-2.18 c -15.27,-25.96 -24.63,-44.54 -36.36,-61.46 -187.5,-270.3 -374.24,-541.15 -564.52,-809.48 -14.46,-20.38 -50.26,-65.87 -50.26,-65.87 0,0 -53.79,-0.48 -66.99,-0.48 0,15.43 0,12.82 0,24.21 -0.08,0.09 -0.16,0.16 -0.24,0.25 4.27,302.78 25.49,608.59 -155.84,886.06 -5.84,8.95 -11.9,17.87 -18.19,26.77 305.99,0 593.99,0 892.4,0 z M 4528.74,3537.93 c 0,57.45 0,105.16 0,162.07 -558.06,0 -1109.35,0 -1671.69,0 253.56,365.11 499.07,718.63 752.43,1083.46 -430.95,0 -842.2,1 -1253.44,-1.14 -33.21,-0.18 -88.53,0.63 -88.53,0.63 0,0 -38.92,36.61 -58.34,53.34 -263.76,227.35 -569.09,303.69 -911.19,242.97 C 998.438,5026.1 776.371,4842.04 576.895,4634.37 206.539,4248.79 18.6758,3775.51 1.44922,3246.03 -25.1367,2428.75 314.555,1786.48 990.945,1329.77 c 161.295,-108.9 346.135,-182.9 510.865,-268.15 0,-294.749 0,-596.608 0,-906.671 -282.38,0 -549.662,0 -821.318,0 0,-56.2185 0,-103.9177 0,-154.949 990.728,0 1976.168,0 2962.868,0 0,53.1211 0,100.961 0,155 -303.01,0 -601.12,0 -911.61,0 0,294.531 -1.08,576.461 2.44,858.34 0.13,10.1 0,36.31 0,36.31 0,0 26.69,7.35 54.79,17.56 958.26,297.06 1666.92,1251.33 1519.89,2375.08 -3.7,28.25 -7.68,56.3 -9.7,95.64 77.96,0 159.61,0 229.57,0"
         style="fill:#231f20;fill-opacity:1;fill-rule:evenodd;stroke:none"
         id="path12" />
      <path
         d="m 1497.17,3807.77 c 126.39,-0.71 207.93,78.58 208.06,202.3 0.14,123.1 -82.25,203.32 -207.98,202.54 -122.09,-0.77 -200.95,-77.88 -202.82,-198.36 -1.94,-124.92 77.45,-205.79 202.74,-206.48 z m 4.36,-160.02 c -191.54,-0.79 -365.92,169.85 -367.74,359.85 -1.8,188.75 172.38,363.73 362.86,364.48 192.44,0.76 365.23,-168.28 367.52,-359.57 2.25,-188.87 -171.83,-363.98 -362.64,-364.76"
         style="fill:#231f20;fill-opacity:1;fill-rule:evenodd;stroke:none"
         id="path14" />
    </g>
  </g>
</svg>
